# xmcd
#
# Track frame offsets: 
#        151
#        11996
#        25186
#        35784
#        47473
#        61236
#        76186
#        89440
#        103754
#        117240
#        127426
#
# Disc length: 1894 seconds
#
# Revision: 1
# Processed by: cddbd v1.5.2PL0 Copyright (c) Steve Scherf et al.
# Submitted via: ExactAudioCopy v0.90b4
#
DISCID=9307640b
DTITLE=George Jones - In A Gospel Way
DYEAR=1974
DGENRE=Country
TTITLE0=In A Gospel Way
TTITLE1=Why Me, Lord
TTITLE2=A Man I Always Wanted To Meet
TTITLE3=The Baptism Of Jesse Taylor
TTITLE4=Release Me (From My Sin)
TTITLE5=Amazing Grace
TTITLE6=Mama's Hands
TTITLE7=God Keeps The Wild Flowers Blooming
TTITLE8=Mama Was A Preacher Man
TTITLE9=I Wonder How John Felt (When He Baptized Jesus)
TTITLE10=I Can't Find It Here
EXTD=Originally Released 1974\nRazor and Tie CD Edition Released May 20,
EXTD=1997\nS&P Records CD Edition Released October 11, 2005\n\nAMG EX
EXTD=PERT REVIEW: N/A\n\nAMAZON.COM CUSTOMER REVIEW\nThe Gospel accord
EXTD=ing to Jones, March 27, 2005\nReviewer: Joe Sixpack (...in Middle
EXTD=America]\nThis is a reissue of an album from 1973, when the grea
EXTD=t George Jones (country's greatest singer ever, period.) was work
EXTD=ing with producer Billy Sherrill. It's one of many gospel albums 
EXTD=Jones recorded in his career, and one of the best.\n\nAMAZON.COM 
EXTD=CUSTOMER REVIEW\nGeorge "Graces" the Gospel Genre, October 23, 20
EXTD=01\nReviewer: C-Beck (Portland, OR United States]\nAn incredible 
EXTD=feat for Jones worshippers around the universe. "In a Gospel Way"
EXTD=delivers the listener to every corner of the Possum's impossible
EXTD=vocal range. If you like to see him raise hell, wait until you h
EXTD=ear him open the gates of heaven. From his unsurpassed "Amazing G
EXTD=race", to the awe-inspiring "Mama's Hands", George's soulful rend
EXTD=itions will bring you to your knees. I'm not a religious man, but
EXTD=this record made me feel like I had been saved.\n\nHalf.com Deta
EXTD=ils \nContributing artists: The Jordanaires \n\nAlbum Notes\nPers
EXTD=onnel includes: George Jones (vocals) - The Jordanaires, The Nashv
EXTD=ille Edition (background vocals).\n\nProducer: Billy Sherrill.\nR
EXTD=eissue producer: Mike Ragogna.\n\nOriginally released on Epic (32
EXTD=562).\n\nAlthough George Jones was well into a career marked by a
EXTD=reputation for drinking like a fish and being quite the rabble-r
EXTD=ouser, the release of IN A GOSPEL WAY showed another side of the 
EXTD=hard-living country singer. Having grown up with a mother who pla
EXTD=yed piano in church, GOSPEL WAY was not such a far-fetched idea f
EXTD=or Jones. He recorded eleven Gospel songs ranging from lushly orc
EXTD=hestrated traditional fare ("Amazing Grace") to the rollicking "M
EXTD=ama Was A Preacher Man," co-written by the dulcet-toned Texan him
EXTD=self.\nThe redemptive touch of God is reflected in the tale of a 
EXTD=ne'er-do-well who sees the light in "The Baptism Of Jesse Taylor,
EXTD=" and the search for absolution in Kris Kristofferson's "Why Me, 
EXTD=Lord?" seems a thinly disguised plea for salvation from the rough
EXTD=and-tumble Jones. Although producer Billy Sherrill's use of bill
EXTD=owy string arrangements, crying steel guitar and the Jordanaires 
EXTD=and Nashville Edition as background vocalists makes GOSPEL WAY a 
EXTD=neat, countrypolitan package, Possum's pain radiates clearly in s
EXTD=ongs such as "Mama's Hands" and "Release Me (From My Sin)."\n\nIn
EXTD=dustry Reviews\n4 stars (out of 5) - ...marvelous vocals....[Jone
EXTD=s is] a true 'singer's singer' and colossus of country music...\n
EXTD=Down Beat (09/01/1997)
EXTT0=
EXTT1=
EXTT2=
EXTT3=
EXTT4=
EXTT5=
EXTT6=
EXTT7=
EXTT8=
EXTT9=
EXTT10=
PLAYORDER=
